<?xml version="1.0" standalone="no"?>
<!DOCTYPE svg PUBLIC "-//W3C//DTD SVG 20010904//EN"
 "http://www.w3.org/TR/2001/REC-SVG-20010904/DTD/svg10.dtd">
<svg version="1.0" xmlns="http://www.w3.org/2000/svg"
 width="460.000000pt" height="130.000000pt" viewBox="0 0 460.000000 130.000000"
 preserveAspectRatio="xMidYMid meet">
<metadata>
Created by potrace 1.16, written by Peter Selinger 2001-2019
</metadata>
<g transform="translate(0.000000,130.000000) scale(0.100000,-0.100000)"
fill="#000000" stroke="none">
<path d="M1825 896 c-94 -43 -121 -158 -54 -226 19 -18 56 -37 97 -50 36 -11
74 -28 84 -37 24 -22 23 -78 -2 -103 -27 -27 -103 -27 -148 0 -43 27 -60 25
-74 -6 -11 -23 -9 -28 12 -44 82 -62 238 -48 286 25 23 36 34 92 23 127 -13
48 -45 75 -123 104 -81 31 -120 65 -110 97 16 57 84 73 154 37 l39 -20 15 22
c24 33 20 44 -21 64 -49 23 -139 28 -178 10z"/>
<path d="M2707 896 c-66 -24 -111 -61 -142 -117 -25 -47 -29 -64 -29 -129 2
-161 98 -260 254 -260 186 1 299 159 246 344 -39 134 -194 210 -329 162z m172
-81 c73 -37 105 -178 59 -264 -31 -60 -66 -83 -130 -88 -41 -3 -63 1 -98 19
-63 33 -85 75 -85 163 1 99 39 163 110 185 38 12 107 5 144 -15z"/>
<path d="M3278 895 c-104 -39 -161 -129 -161 -249 0 -82 16 -126 64 -181 46
-52 99 -75 179 -75 64 0 119 18 165 53 20 15 20 16 -4 41 l-23 25 -29 -21
c-44 -33 -127 -36 -177 -8 -58 33 -86 89 -86 170 1 74 18 115 63 153 41 34 96
42 152 22 73 -27 83 -27 102 -1 l17 25 -46 27 c-56 33 -158 42 -216 19z"/>
<path d="M610 645 l0 -255 150 0 150 0 0 35 0 35 -105 0 -105 0 0 220 0 220
-45 0 -45 0 0 -255z"/>
<path d="M980 645 l0 -255 45 0 45 0 0 255 0 255 -45 0 -45 0 0 -255z"/>
<path d="M1200 645 l0 -255 41 0 41 0 -4 185 c-1 102 -2 185 -2 185 1 0 57
-71 124 -157 158 -203 167 -213 202 -213 l28 0 0 255 0 255 -40 0 -40 0 -2
-179 -3 -179 -140 179 c-130 167 -142 179 -172 179 l-33 0 0 -255z"/>
<path d="M2100 865 l0 -35 80 0 80 0 0 -220 0 -220 45 0 45 0 0 220 0 220 75
0 75 0 0 35 0 35 -200 0 -200 0 0 -35z"/>
<path d="M3620 645 l0 -255 45 0 45 0 0 115 0 115 34 0 c31 0 40 -9 120 -115
l88 -115 49 0 50 0 -77 103 c-42 56 -90 119 -106 140 -27 34 -28 39 -13 53 9
9 52 61 96 115 l80 99 -49 0 -49 0 -83 -105 c-71 -89 -87 -105 -112 -105 l-28
0 0 105 0 105 -45 0 -45 0 0 -255z"/>
</g>
</svg>
